<?xml version="1.0" encoding="UTF-8"?>
<svg viewBox="0 0 222.2 271.64" xmlns="http://www.w3.org/2000/svg">
 <path d="m7.215 82.879c-5.278 0.076004-5.917 1.249-6.986-3.181-0.51-2.113-0.035-5.17 0.144-7.327 0.561-6.777 5.236-14.682 8.469-20.535 5.018-9.083-2.08-12.018-3.828-20.824-1.082-5.449 14.658-11.031 18.087-12.533 35.696-15.633 75.718-22.229 114.48-18.429 9.36 0.917 18.521 1.613 27.326 5.113 4.607 1.831 9.27 3.993 13.055 7.263 3.691 3.188 6.039 7.916 9.258 10.872 2.034 1.868 2.817-0.523 3.54 2.989 0.326 1.584-0.79201 3.298-1.244 4.724-1.112 3.507-2.249 5.655-1.436 9.544 0.79501 3.801 4.626 8.788 3.158 12.726-2.624 7.038-10.163 10.137-11.507 16.896-1.682 8.458-3.014 16.996-4.81 25.428-3.486 16.375-5.854 34.103-6.076 50.903 7.672-1.573 14.23 3.536 20.957 2.796 5.608-0.617 14.686-1.637 20.192 0.867 6.064 2.758 8.485 14.889 9.474 21.114 0.854 5.383 3.069 10.775 2.439 16.292-0.782 6.861-4.954 7.353-10.765 9.835 5.148 5.991 14.333 13.363 9.856 21.498-5.612 10.199-15.243 5.741-23.637 10.894 4.092 6.745 10.933 12.068 5.215 18.703-6.877 7.981-17.245 10.989-27.067 13.602-19.014 5.057-38.194 7.32-57.83 7.32-11.16 0-33.688 4.817-42.14-4.771-4.598-5.218-2.164-12.355 2.106-17.018 2.06-2.249 17.312-9.436 15.311-11.761-0.975-1.133-9.818-0.89999-11.413-1.015-4.205-0.302-8.537 0.037994-12.703-0.336-3.13-0.28101-8.112-1.323-8.039-5.688 0.108-6.403 13.166-10.978 17.895-12.726 5.864-2.167 15.609-2.099 14.259-10.219-0.539-3.24-3.637-6.049-3.637-9.159-9.99e-4 -4.416 3.106-4.339-1.722-7.23-6.945-4.158-18.997-1.945-26.795-3.374-21.243-3.892-22.882-33.512-25.444-50.736-0.873-5.869-1.599-11.827-3.12-17.575-1.022-3.861-1.061-5.589-3.973-7.852-2.477-1.924-6.367-2.839-9.186-4.243-9.55-4.756-17.12-11.818-18.563-22.75h6.292c1.097 0 0.492 2.083 0.982 2.892 1.822 3.005 2.811 6.041 5.358 8.87 2.917 3.24 6.499 6.085 10.598 7.673 4.875 1.889 5.261 1.436 4.235-3.721-2.966-14.906-7.502-28.167-13.014-42.323-4.394 8.28-8.041 17.311-7.752 26.512" fill="#3f3f3f"/>
 <path d="m85.877 264.55c20.536-0.22101 41.66 0.44501 62.02-2.677 9.977-1.529 20.046-3.062 29.541-6.563 7.749-2.857 16.537-4.393 20.631-12.355 3.216-6.256-21.387-13.979-8.17-19.088 6.579-2.543 16.237-0.16699 21.819-4.627 0.94299-0.754 2.5-2.555 2.775-3.76 0.513-2.242-2.331-9.103-5.112-9.41-3.538-0.39101-5.513 0.011002-7.042 0.636-1.804 0.73599-2.759 2.314-5.741 2.314-1.545 0-4.509-1.576-5.838-1.157-1.958 0.617-6.35 9.113-8.134 7.99-7.631-4.804-7.627-0.67001-10.863 4.918-3.639 6.285-3.646 6.851-9.999 7.915-5.67 0.95-11.906 0.431-18.182 0.965-4.354 0.371-7.909 0.875-11.867 0.096008-2.955-0.582-5.329-1.326-8.421-1.445-3.492-0.135-5.931 0.354-8.709-2.023-3.718-3.183-8.143 3.703-10.527 1.792-3.217-2.577-7.44-4.771-8.983-8.658-0.563-1.416-7.032 1.156-8.624 1.659-6.136 1.938-12.134 4.145-16.938 8.58 9.878 1.477 20.272-1.148 29.566 3.386 7.691 3.752 2.659 9.208-2.701 11.907-5.128 2.584-18.241 8.106-16.722 15.943 0.68 3.505 3.517 2.619 6.221 3.662" fill="#007fff"/>
 <path d="m129.51 259.92c10.485-0.664 21.465-1.263 31.484-4.628 2.146-0.72101 16.948-6.177 8.039-9.93-2.66-1.12-10.73 4.061-14.067 5.012-5.912 1.685-12.009 2.298-18.104 2.913-8.693 0.877-23.843 0.153-7.352 6.633" fill="#00f"/>
 <path d="m134.87 248.83c4.229-1.001 19.233-2.13 21.053-5.688 2.234-4.371-2.581-5.232-5.314-4.523-3.333 0.864-20.339 2.85-21.001 6.452-0.48801 2.65 3.195 3.783 5.262 3.759" fill="#007fff"/>
 <path d="m133.34 224.54c3.907-0.70499 7.776-2.17 11.771-2.313 3.415-0.123 7.42 2.334 10.479 0.96399 1.45-0.64899 3.095-1.508 4.688-1.688 4.066-0.45601 4.921-6.405 6.844-9.496 4.517-7.257 8.39-3.713 14.257-5.881 4.159-1.537 3.659-6.264 9.762-4.771 4.808 1.175 5.072-2.943 9.091-5.641 3.418-2.294 7.541-2.871 11.005-4.724 3.627-1.939 4.911-4.356 4.211-8.919-0.37999-2.479-0.39299-5.077-1.531-7.375-1.414-2.855-0.093002-4.347-0.479-7.037-1.617-11.281-9.652-12.672-18.997-11.373-5.375 0.74701-8.364-0.28099-13.349-1.931-3.019-0.99899-5.655-1.62-8.756-0.482-4.576 1.68-9.515 1.356-14.211 3.471-4.933 2.221-9.388 5.61-13.881 8.589-4.021 2.666-11.112 3.663-13.781 7.343-2.896 3.992-8.561 5.437-13.029 6.789-3.747 1.133-8.506 5.274-11.893 5.768-4.456 0.64801-4.884-0.551-8.853 3.037 6.248 3.764 0.128 5.893-0.957 9.256-0.529 1.639 0.69 2.635 1.597 4.096 0.79 1.271 2.561 3.195 2.901 4.677 0.265 1.152-1.262 2.687-1.052 3.855 0.262 1.459 2.197 5.966 2.919 7.521 1.778 3.831 2.695 3.49 5.406 0.77101 3.155-3.166 6.927 0.17099 10.623 1.061 0.346 0.083008 0.473 1.061 0.957 1.157 1.555 0.312 3.313-0.63701 5.072-0.48201 3.326 0.29001 6.547 2.301 9.186 3.758" fill="#ff0"/>
 <path d="m138.61 216.92c7.88-2.566-2.245-13.036 0.287-17.547 0.71599-1.274 6.359-3.42 7.772-4.274 4.23-2.556 8.907-4.213 13.472-6.041 8.703-3.484 15.877-9.274 24.527-12.544 4.044-1.528 17.528-4.837 17.484-9.919-0.08699-9.971-27.615 7.959-32.154 10.895-7.964 5.151-16.632 6.659-24.69 11.183-3.111 1.746-7.426 7.995-10.526 8.388-1.744 0.22101-6.723-4.067-9.474-4.531-4.54-0.76601-9.327 0.356-13.755-1.188-5.421-1.893-3.171 3.646-0.024002 5.237 4.418 2.234 10.027-0.922 14.028 1.302 7.183 3.992 7.279 4.851 9.426 12.824 0.666 2.478 1.039 5.22 3.627 6.215"/>
 <path d="m116.5 213.07c3.822-0.73399 10.837-5.86 3.637-8.004-4.829-1.438-8.452 6.488-3.637 8.004"/>
 <path d="m107.89 209.21c0.348-0.991-0.806-6.184-2.775-3.857-1.84 2.174 0.896 4.624 2.775 3.857"/>
 <path d="m157.74 205.26c4.175-1.239 8.313-0.83701 7.943-5.784-0.151-2.032-0.53-3.05-2.392-3.952-5.117-2.481-9.431 8.161-5.551 9.736"/>
 <path d="m174.78 202.17c2.723 0.187 7.065-3.434 4.593-6.17-3.032-3.353-10.581 4.434-4.593 6.17"/>
 <path d="m194.49 192.15c1.975 0.059998 3.106-1.407 1.627-3.182-2.777-3.331-5.712 2.733-1.627 3.182"/>
 <path d="m181.48 188.29c3.555 0.080994 2.651-4.725-0.384-4.436-2.319 0.22101-2.275 4.008 0.384 4.436"/>
 <path d="m130.18 187.62c2.485 0.334 5.986-0.42601 7.656-2.506 0.909-1.132 2.543-6.942-0.383-6.942-3.671 0-12.738 6.733-7.273 9.448"/>
 <path d="m79.083 183.37c9.836-0.81 18.613-1.51 27.272-6.362 3.827-2.145 8.204-2.105 11.772-3.904 3.866-1.95 6.149-5.843 9.856-7.954 3.48-1.981 7.336-2.225 10.909-4.339 3.693-2.186 6.847-5.238 10.527-7.437 1.054-0.629 10.708-4.56 10.727-4.675 0.532-3.395 1.064-6.789 1.597-10.184 1.063-6.784 13.364-70.23 10.402-71.156-5.478-1.712-18.853 9.855-24.054 12.79-9.169 5.172-18.441 10.025-28.006 14.425-25.063 11.531-53.473 20.482-81.292 18.515l9.33 53.648c2.641 15.173 18.101 15.677 30.96 16.633" fill="#7f7f7f"/>
 <path d="m205.31 179.52c2.07-1.367 1.133-4.985-1.436-5.012-4.115-0.041992-2.462 5.791 1.436 5.012"/>
 <path d="m151.72 176.82c6.157 0.463 5.107-7.73 0.383-4.916-2.164 1.289-2.656 4.106-0.383 4.916"/>
 <path d="m167.79 169.59c2.206-0.709 2.539-4.063-0.097-4.82-3.127-0.897-2.508 4.417 0.097 4.82"/>
 <path d="m154.78 167.56c2.867-1.003 1.046-5.661-1.531-5.109-3.383 0.724-0.52701 4.87 1.531 5.109"/>
 <path d="m176.12 164.38c3.624-2.451-2.695-3.586 0 0"/>
 <path d="m152.39 138.74c12.156 0.201 3.385-5.775-0.383-4.242-2.467 1.005-3.22 4.097 0.383 4.242"/>
 <path d="m156.98 126.49c5.368-0.74699 4.48-5.111-0.383-5.591-6.236-0.616-6.084 5.018 0.383 5.591"/>
 <path d="m144.39 116.34c1.413-0.206 9.829 0.062996 9.091-2.555-0.563-1.997-2.71-3.318-4.689-3.566-2.949-0.371-9.342 4.266-4.402 6.121"/>
 <path d="m39.805 105.63c26.356 0.376 53.877-8.599 77.396-20.052 12.846-6.256 25.342-12.797 37.218-20.774 1.215-0.815 2.371-1.72 3.547-2.589 2.708-2.004 0.50099-0.544 0.599-2.668 0.11-2.386-1.723-5.207-1.436-8.099 0.347-3.496 1.908-6.672 3.732-9.544-25.076 6.483-49.928 7.25-75.705 6.565-22.357-0.593-50.376 0.745-70.423-10.904 4.909 12.576 10.379 25.03 14.51 37.893 2.109 6.566 4.229 13.237 5.281 20.074 0.598 3.891-0.067997 10.268 5.281 10.098" fill="#7f7f7f"/>
 <path d="m152.39 102.87c1.735-0.35 5.539 0.14 6.891-1.061 2.859-2.539-0.46199-3.618-3.22-3.871-1.651-0.151-6.523-1.625-6.925 1.364-0.256 1.907 1.509 3.253 3.254 3.568"/>
 <path d="m176.88 59.681c11.767-4.118 6.366-20.2-4.785-14.654-1.984 0.987-10.976 10.648-5.837 11.761 2.774 0.601 2.485-4.593 4.593-5.688 4.895-2.542 5.306 6.236 6.029 8.581" fill="#7f7f7f"/>
 <g fill="#007fff">
  <path d="m112.58 41.617c16.141-2.731 32.281-5.463 48.422-8.194-17.275-9.638-36.073-8.155-55.217-7.713-19.318 0.447-37.838 4.796-55.886 11.569 20.353 4.298 42.414 2.559 62.681 4.338"/>
  <path d="m82.049 38.857c13.409-2.753 27.909-5.88 41.591-3.071 2.133 0.438 9.344 3.479 10.851 1.721 3.598-4.197-7.249-6.538-8.947-6.893-13.132-2.744-26.202-1.434-39.205 1.375-1.821 0.392-14.838 5.579-4.29 6.868"/>
 </g>
 <path d="m181.19 36.929c0.38101-3.456-1.84-1.093 0 0"/>
 <path d="m29.382 39.061c18.191-4.935 35.773-13.894 54.802-15.265 18.996-1.368 39.714-4.73 58.454 0.050001 5.004 1.276 10.016 2.658 14.538 5.224 0.929 0.527 6.246 5.546 7.235 5.652 1.94 0.209 11.39-6.015 10.716-7.713-1.691-4.266-5.509-6.266-9.377-8.291-17.401-9.108-41.069-8.946-60.293-8.777-15.23 0.134-31.174 2.736-45.787 6.961-15.185 4.39-31.737 7.987-45.12 16.759 3.813 3.674 10.132 4.131 14.832 5.4" fill="#007fff"/>
 <rect x="57.097" y="68.36" width="1" height="14" fill="#7f7f7f" stroke-width="null"/>
</svg>
